<mxfile host="app.diagrams.net" modified="2022-03-09T22:48:38.745Z" agent="5.0 (Windows)" etag="d5tk1ATMa9kvMMeFso1Q" version="17.0.0" type="github">
  <diagram id="fuGhR0mEtFr2HnouCPnu" name="Page-1">
    <mxGraphModel dx="1447" dy="750" grid="1" gridSize="10" guides="1" tooltips="1" connect="1" arrows="1" fold="1" page="1" pageScale="1" pageWidth="850" pageHeight="1100" math="0" shadow="0">
      <root>
        <mxCell id="0" />
        <mxCell id="1" parent="0" />
        <mxCell id="DD0ua2FHcYn27ploNRfd-22" style="edgeStyle=orthogonalEdgeStyle;rounded=0;orthogonalLoop=1;jettySize=auto;html=1;exitX=1;exitY=0.25;exitDx=0;exitDy=0;entryX=0;entryY=0.5;entryDx=0;entryDy=0;strokeWidth=3;" edge="1" parent="1" source="DD0ua2FHcYn27ploNRfd-18" target="DD0ua2FHcYn27ploNRfd-3">
          <mxGeometry relative="1" as="geometry" />
        </mxCell>
        <mxCell id="DD0ua2FHcYn27ploNRfd-23" style="edgeStyle=orthogonalEdgeStyle;rounded=0;orthogonalLoop=1;jettySize=auto;html=1;exitX=1;exitY=0.75;exitDx=0;exitDy=0;entryX=0;entryY=0.5;entryDx=0;entryDy=0;strokeWidth=3;" edge="1" parent="1" source="DD0ua2FHcYn27ploNRfd-18" target="DD0ua2FHcYn27ploNRfd-20">
          <mxGeometry relative="1" as="geometry" />
        </mxCell>
        <mxCell id="DD0ua2FHcYn27ploNRfd-3" value="&lt;div&gt;1.Game Object&lt;/div&gt;&lt;div&gt;Interaction&lt;br&gt;&lt;/div&gt;" style="ellipse;whiteSpace=wrap;html=1;aspect=fixed;fontSize=24;strokeWidth=3;" vertex="1" parent="1">
          <mxGeometry x="275" y="30" width="150" height="150" as="geometry" />
        </mxCell>
        <mxCell id="DD0ua2FHcYn27ploNRfd-21" style="edgeStyle=orthogonalEdgeStyle;rounded=0;orthogonalLoop=1;jettySize=auto;html=1;exitX=1;exitY=0.5;exitDx=0;exitDy=0;entryX=0;entryY=0.5;entryDx=0;entryDy=0;strokeWidth=3;" edge="1" parent="1" source="DD0ua2FHcYn27ploNRfd-18" target="DD0ua2FHcYn27ploNRfd-19">
          <mxGeometry relative="1" as="geometry" />
        </mxCell>
        <mxCell id="DD0ua2FHcYn27ploNRfd-24" value="&lt;div style=&quot;font-size: 18px;&quot;&gt;&lt;font style=&quot;font-size: 18px;&quot;&gt;Player&lt;/font&gt;&lt;/div&gt;&lt;div style=&quot;font-size: 18px;&quot;&gt;&lt;font style=&quot;font-size: 18px;&quot;&gt;Input&lt;/font&gt;&lt;br style=&quot;font-size: 18px;&quot;&gt;&lt;/div&gt;" style="edgeLabel;html=1;align=center;verticalAlign=middle;resizable=0;points=[];fontSize=18;labelBackgroundColor=#FFFFFF;" vertex="1" connectable="0" parent="DD0ua2FHcYn27ploNRfd-21">
          <mxGeometry x="-0.2952" y="-1" relative="1" as="geometry">
            <mxPoint x="-4" y="-4" as="offset" />
          </mxGeometry>
        </mxCell>
        <mxCell id="DD0ua2FHcYn27ploNRfd-18" value="&lt;font style=&quot;font-size: 24px&quot;&gt;Player&lt;/font&gt;" style="rounded=1;whiteSpace=wrap;html=1;strokeWidth=3;" vertex="1" parent="1">
          <mxGeometry x="50" y="245" width="120" height="60" as="geometry" />
        </mxCell>
        <mxCell id="DD0ua2FHcYn27ploNRfd-19" value="&lt;div&gt;2.Combat&lt;br&gt;&lt;/div&gt;" style="ellipse;whiteSpace=wrap;html=1;aspect=fixed;fontSize=24;strokeWidth=3;" vertex="1" parent="1">
          <mxGeometry x="275" y="200" width="150" height="150" as="geometry" />
        </mxCell>
        <mxCell id="DD0ua2FHcYn27ploNRfd-20" value="&lt;div&gt;3. Quests&lt;br&gt;&lt;/div&gt;" style="ellipse;whiteSpace=wrap;html=1;aspect=fixed;fontSize=24;strokeWidth=3;" vertex="1" parent="1">
          <mxGeometry x="275" y="370" width="150" height="150" as="geometry" />
        </mxCell>
      </root>
    </mxGraphModel>
  </diagram>
</mxfile>
